<svg xmlns="http://www.w3.org/2000/svg" xmlns:xlink="http://www.w3.org/1999/xlink" viewBox="0 0 1962 810"><defs><radialGradient id="radial-gradient" cx="877.5" cy="646.58" r="296.45" gradientTransform="translate(86.61 44.72) scale(0.9)" gradientUnits="userSpaceOnUse"><stop offset="0" stop-color="#fff"/><stop offset="1" stop-color="#f1f1f1"/></radialGradient><radialGradient id="radial-gradient-2" cx="839.96" cy="160.35" r="1159.45" gradientTransform="translate(86.61 44.72) scale(0.9)" gradientUnits="userSpaceOnUse"><stop offset="0" stop-color="#f1f1f1"/><stop offset="1" stop-color="#fff"/></radialGradient><radialGradient id="radial-gradient-3" cx="715.19" cy="397.98" r="769.49" xlink:href="#radial-gradient"/><radialGradient id="radial-gradient-4" cx="246.38" cy="599.4" r="218.07" xlink:href="#radial-gradient"/><radialGradient id="radial-gradient-5" cx="161.41" cy="590.09" r="71.89" xlink:href="#radial-gradient"/><radialGradient id="radial-gradient-6" cx="1473.09" cy="574.06" r="358.14" xlink:href="#radial-gradient"/></defs><g style="isolation:isolate"><g id="Devices"><path d="M1027.24,743.6l-21.06-10.13c-12.08-5.86-21.44-22.42-23.23-35.41l-12.59-91.65H792.66l-12.6,91.65c-1.78,13-11.14,29.55-23.23,35.41h0l-20.88,10c-.09.18-.18.4-.29.59l6.2,6.2h279.3l6.24-6.32C1027.35,743.87,1027.29,743.74,1027.24,743.6Z" style="fill:#c4c4c4"/><path d="M1020,747.53H743l-4.09-2.91L758,736c7.78-3.78,13.34-10.82,16.62-16.05a56.54,56.54,0,0,0,8.14-21.49l12.28-89.25H967.94l12.26,89.25a56.9,56.9,0,0,0,8.15,21.49c3.29,5.23,8.84,12.27,16.63,16l20.63,8.63-5.62,2.94Z" style="fill:#c4c4c4"/><path d="M1326.76,616.67a23.15,23.15,0,0,1-23.14,23.14H459.39a23.14,23.14,0,0,1-23.13-23.14v-565a23.12,23.12,0,0,1,23.13-23.13h844.23a23.14,23.14,0,0,1,23.14,23.13Z" style="fill:#c4c4c4"/><path d="M436.26,552.59v64.08a23.14,23.14,0,0,0,23.13,23.14h844.23a23.15,23.15,0,0,0,23.14-23.14V552.59Z" style="fill:#f1f1f1"/><path d="M1014.73,556.17l48.18,76.71h240.71a16.23,16.23,0,0,0,16.2-16.21v-60.5Z" style="fill:url(#radial-gradient)"/><path d="M1325.05,616.67a21.44,21.44,0,0,1-21.43,21.42H459.39A21.43,21.43,0,0,1,438,616.67v-565a21.44,21.44,0,0,1,21.41-21.42h844.23a21.45,21.45,0,0,1,21.43,21.42Zm3.42-565a24.87,24.87,0,0,0-24.85-24.84H459.39a24.87,24.87,0,0,0-24.84,24.84v565a24.88,24.88,0,0,0,24.84,24.85h844.23a24.88,24.88,0,0,0,24.85-24.85Z" style="fill:#d6d6d6"/><rect x="472.98" y="64.69" width="817.05" height="455.83" style="opacity:0.5;mix-blend-mode:overlay;fill:url(#radial-gradient-2)"/><g style="opacity:0.30000000000000004;mix-blend-mode:overlay"><polygon points="1283.78 512.46 987.28 512.46 709.93 70.94 1283.78 70.94 1283.78 512.46" style="fill:url(#radial-gradient-3)"/></g><path d="M473,64.69V520.52H1290V64.69Zm814.36,453.13H475.67V67.38h811.67Z" style="fill:#fff"/><path d="M1027.51,744.32a3.66,3.66,0,0,0-.16-.5H735.82c-.13.23-.27.52-.42.76a6.5,6.5,0,0,0,6.46,5.73h279.3a6.5,6.5,0,0,0,6.44-5.61C1027.58,744.58,1027.54,744.46,1027.51,744.32Z" style="fill:#c4c4c4"/><path d="M1027.41,744a.79.79,0,0,0-.08-.22H872.74v6.49h148.42a6.48,6.48,0,0,0,6.44-5.65C1027.54,744.46,1027.48,744.23,1027.41,744Z" style="fill:#c4c4c4"/><path d="M735.41,744.66H1027.6a1.7,1.7,0,0,0-1.7-1.72H737.12a1.71,1.71,0,0,0-1.71,1.72Z" style="fill:#fff"/><path d="M1024.78,748.49a12.72,12.72,0,0,1-3.41.32H741.18c-1.49,0-3.15,0-4.35-1a3.59,3.59,0,0,1-.38-.4,5,5,0,0,0,.32.48,6.77,6.77,0,0,0,5.09,2.4h279.3a7.56,7.56,0,0,0,1.44-.16c.26,0,.6-.14.75-.16a4.18,4.18,0,0,0,2.66-1.8,4.35,4.35,0,0,0,.32-.43,2.78,2.78,0,0,0,.31-.43,2.59,2.59,0,0,1-.31.35c-.11.08-.22.17-.35.25a1.94,1.94,0,0,1-.61.33A2.45,2.45,0,0,1,1024.78,748.49Z" style="fill:#c4c4c4"/><path d="M265.1,433.06a14.59,14.59,0,0,1,14.61-14.6H505.78a14.59,14.59,0,0,1,14.61,14.6V734.35A14.61,14.61,0,0,1,505.78,749H279.71a14.62,14.62,0,0,1-14.61-14.62Z" style="fill:#c4c4c4"/><path d="M266.45,433.06a13.27,13.27,0,0,1,13.26-13.26H505.78a13.28,13.28,0,0,1,13.27,13.26V734.35a13.27,13.27,0,0,1-13.27,13.26H279.71a13.26,13.26,0,0,1-13.26-13.26Zm-2.69,301.29a16,16,0,0,0,15.95,16H505.78a16,16,0,0,0,16-16V433.06a16,16,0,0,0-16-16H279.71a16,16,0,0,0-15.95,16Z" style="fill:#d6d6d6"/><rect x="282" y="439.38" width="221.49" height="288.65" style="fill:#f1f1f1;opacity:0.5;mix-blend-mode:overlay"/><path d="M282,439.38V728H503.49V439.38ZM501.53,726.09H284V441.34H501.53Z" style="fill:#fff"/><g style="opacity:0.30000000000000004;mix-blend-mode:overlay"><polygon points="498.63 723.18 489.39 723.18 314.18 444.24 498.63 444.24 498.63 723.18 498.63 723.18" style="fill:url(#radial-gradient-4)"/></g><path d="M298.69,734.64a14.7,14.7,0,0,1-14.7,14.7H185.54a14.7,14.7,0,0,1-14.69-14.7V529.23a14.69,14.69,0,0,1,14.69-14.7H284a14.69,14.69,0,0,1,14.7,14.7Z" style="fill:#c4c4c4"/><path d="M297.71,734.64A13.74,13.74,0,0,1,284,748.36H185.54a13.73,13.73,0,0,1-13.72-13.72V529.23a13.75,13.75,0,0,1,13.72-13.73H284a13.74,13.74,0,0,1,13.72,13.73Zm2-205.41A15.68,15.68,0,0,0,284,513.57H185.54a15.67,15.67,0,0,0-15.67,15.66V734.64a15.65,15.65,0,0,0,15.67,15.67H284a15.69,15.69,0,0,0,15.68-15.67Z" style="fill:#d6d6d6"/><rect x="180.49" y="533.13" width="108.55" height="193.55" style="fill:#f1f1f1;opacity:0.5;mix-blend-mode:overlay"/><path d="M180.49,533.13V726.68H289V533.13ZM287.08,724.72H182.45V535.09H287.08Z" style="fill:#fff"/><g style="opacity:0.30000000000000004;mix-blend-mode:overlay"><polygon points="285.23 627.69 228.23 536.94 285.23 536.94 285.23 627.69 285.23 627.69" style="fill:url(#radial-gradient-5)"/></g><path d="M1730.9,725.53H1137.43V343.32a19.63,19.63,0,0,1,19.63-19.61h554.22a19.62,19.62,0,0,1,19.62,19.61Z" style="fill:#c4c4c4"/><path d="M1795.58,726.78c3.07,0,5.69,2.58,5,5.57a23.55,23.55,0,0,1-22.88,18h-687a23.51,23.51,0,0,1-22.86-18c-.73-3,1.88-5.57,5-5.57Z" style="fill:#c4c4c4"/><path d="M1777.67,750.31a19.71,19.71,0,0,0,3.77-.3c.61-.09,1.23-.22,1.83-.37a19,19,0,0,0,3.86-1.27,26.21,26.21,0,0,0,8-5.81,17.65,17.65,0,0,1-9.51,4.69,15.45,15.45,0,0,1-1.8.18c-.7.06-1.38.1-2.08.1s-1.38,0-2.06,0H1088.15c-.64,0-1.26,0-1.89,0s-1.27,0-1.92-.07-1.22-.09-1.84-.18a17.94,17.94,0,0,1-1.8-.37,18.55,18.55,0,0,1-6.56-3.4,23.61,23.61,0,0,0,5,3.87c.46.25.94.46,1.41.66a32.2,32.2,0,0,0,4.39,1.55c.57.14,1.15.28,1.74.4s1.29.18,2,.24,1.33.08,2,.08h687Z" style="fill:#c4c4c4"/><rect x="1155.14" y="349.55" width="558.04" height="350.68" style="fill:#f1f1f1;opacity:0.5;mix-blend-mode:overlay"/><g style="opacity:0.30000000000000004;mix-blend-mode:overlay"><polygon points="1707.63 694.67 1561.35 694.67 1348.04 355.1 1707.63 355.1 1707.63 694.67 1707.63 694.67" style="fill:url(#radial-gradient-6)"/></g><path d="M1492.87,730.76a6.56,6.56,0,0,1-6.57,6.56H1382a6.56,6.56,0,0,1-6.56-6.56V726.6h117.41Z" style="fill:#747474"/><path d="M1492.8,730.72a6.55,6.55,0,0,1-6.55,6.56H1382.08a6.56,6.56,0,0,1-6.56-6.56v-4.13H1492.8Z" style="fill:#757575"/><path d="M1492.74,730.68a6.54,6.54,0,0,1-6.55,6.55h-104a6.56,6.56,0,0,1-6.56-6.55v-4.09h117.16Z" style="fill:#767676"/><path d="M1492.68,730.64a6.54,6.54,0,0,1-6.54,6.55h-104a6.55,6.55,0,0,1-6.55-6.55v-4.06h117Z" style="fill:#777"/><path d="M1492.62,730.61a6.54,6.54,0,0,1-6.54,6.54H1382.25a6.54,6.54,0,0,1-6.54-6.54v-4h116.91Z" style="fill:#787878"/><path d="M1492.55,730.57a6.52,6.52,0,0,1-6.52,6.53H1382.3a6.53,6.53,0,0,1-6.53-6.53v-4h116.78Z" style="fill:#797979"/><path d="M1492.49,730.53a6.52,6.52,0,0,1-6.52,6.53H1382.36a6.53,6.53,0,0,1-6.53-6.53v-4h116.66Z" style="fill:#7a7a7a"/><path d="M1492.43,730.49a6.51,6.51,0,0,1-6.51,6.52H1382.41a6.52,6.52,0,0,1-6.52-6.52v-3.92h116.54Z" style="fill:#7b7b7b"/><path d="M1492.37,730.46a6.5,6.5,0,0,1-6.51,6.51H1382.47a6.52,6.52,0,0,1-6.52-6.51v-3.9h116.42Z" style="fill:#7c7c7c"/><path d="M1492.3,730.42a6.49,6.49,0,0,1-6.5,6.5H1382.52a6.5,6.5,0,0,1-6.5-6.5v-3.86H1492.3Z" style="fill:#7d7d7d"/><path d="M1492.24,730.38a6.49,6.49,0,0,1-6.49,6.5H1382.58a6.5,6.5,0,0,1-6.5-6.5v-3.83h116.16Z" style="fill:#7e7e7e"/><path d="M1492.18,730.34a6.48,6.48,0,0,1-6.49,6.49h-103a6.49,6.49,0,0,1-6.5-6.49v-3.79h116Z" style="fill:#7f7f7f"/><path d="M1492.12,730.31a6.48,6.48,0,0,1-6.48,6.48h-103a6.49,6.49,0,0,1-6.49-6.48v-3.76h115.92Z" style="fill:gray"/><path d="M1492.05,730.27a6.46,6.46,0,0,1-6.47,6.47H1382.75a6.47,6.47,0,0,1-6.48-6.47v-3.73h115.78Z" style="fill:#818181"/><path d="M1492,730.23a6.46,6.46,0,0,1-6.46,6.47H1382.8a6.47,6.47,0,0,1-6.47-6.47v-3.69H1492Z" style="fill:#828282"/><path d="M1491.93,730.19a6.46,6.46,0,0,1-6.46,6.47H1382.86a6.47,6.47,0,0,1-6.47-6.47v-3.66h115.54Z" style="fill:#838383"/><path d="M1491.87,730.16a6.45,6.45,0,0,1-6.45,6.45H1382.91a6.46,6.46,0,0,1-6.46-6.45v-3.63h115.42Z" style="fill:#848484"/><path d="M1491.8,730.12a6.44,6.44,0,0,1-6.44,6.45H1383a6.45,6.45,0,0,1-6.45-6.45v-3.6H1491.8Z" style="fill:#858585"/><path d="M1491.74,730.08a6.44,6.44,0,0,1-6.44,6.44H1383a6.44,6.44,0,0,1-6.44-6.44v-3.56h115.16Z" style="fill:#868686"/><path d="M1491.68,730a6.43,6.43,0,0,1-6.43,6.44H1383.08a6.44,6.44,0,0,1-6.44-6.44v-3.52h115Z" style="fill:#878787"/><path d="M1491.62,730a6.42,6.42,0,0,1-6.43,6.42H1383.13a6.43,6.43,0,0,1-6.43-6.42v-3.5h114.92Z" style="fill:#888"/><path d="M1491.55,730a6.41,6.41,0,0,1-6.41,6.42h-102a6.42,6.42,0,0,1-6.42-6.42v-3.46h114.78Z" style="fill:#898989"/><path d="M1491.49,729.93a6.4,6.4,0,0,1-6.41,6.41H1383.25a6.41,6.41,0,0,1-6.42-6.41V726.5h114.66Z" style="fill:#8a8a8a"/><path d="M1491.43,729.89a6.4,6.4,0,0,1-6.4,6.41H1383.3a6.41,6.41,0,0,1-6.41-6.41V726.5h114.54Z" style="fill:#8b8b8b"/><path d="M1491.37,729.86a6.39,6.39,0,0,1-6.4,6.39H1383.36a6.4,6.4,0,0,1-6.41-6.39v-3.37h114.42Z" style="fill:#8c8c8c"/><path d="M1491.31,729.82a6.38,6.38,0,0,1-6.39,6.39H1383.41a6.39,6.39,0,0,1-6.39-6.39v-3.33h114.29Z" style="fill:#8d8d8d"/><path d="M1491.24,729.78a6.38,6.38,0,0,1-6.38,6.39H1383.47a6.4,6.4,0,0,1-6.39-6.39v-3.3h114.16Z" style="fill:#8e8e8e"/><path d="M1491.18,729.74a6.37,6.37,0,0,1-6.37,6.38H1383.52a6.38,6.38,0,0,1-6.38-6.38v-3.26h114Z" style="fill:#8f8f8f"/><path d="M1491.12,729.71a6.37,6.37,0,0,1-6.37,6.37H1383.58a6.38,6.38,0,0,1-6.38-6.37v-3.23h113.92Z" style="fill:#909090"/><path d="M1491.06,729.67a6.36,6.36,0,0,1-6.37,6.36H1383.63a6.37,6.37,0,0,1-6.37-6.36v-3.2h113.8Z" style="fill:#919191"/><path d="M1491,729.63a6.35,6.35,0,0,1-6.35,6.36h-101a6.36,6.36,0,0,1-6.36-6.36v-3.16H1491Z" style="fill:#929292"/><path d="M1490.93,729.59a6.34,6.34,0,0,1-6.35,6.35H1383.75a6.35,6.35,0,0,1-6.36-6.35v-3.13h113.54Z" style="fill:#939393"/><path d="M1490.87,729.56a6.34,6.34,0,0,1-6.34,6.34H1383.8a6.34,6.34,0,0,1-6.35-6.34v-3.1h113.42Z" style="fill:#949494"/><path d="M1490.81,729.52a6.33,6.33,0,0,1-6.34,6.33H1383.86a6.34,6.34,0,0,1-6.35-6.33v-3.07h113.3Z" style="fill:#959595"/><path d="M1490.74,729.48a6.32,6.32,0,0,1-6.32,6.33H1383.91a6.33,6.33,0,0,1-6.33-6.33v-3h113.16Z" style="fill:#969696"/><path d="M1490.68,729.44a6.32,6.32,0,0,1-6.32,6.33H1384a6.33,6.33,0,0,1-6.33-6.33v-3h113Z" style="fill:#979797"/><path d="M1490.62,729.41a6.31,6.31,0,0,1-6.31,6.31H1384a6.32,6.32,0,0,1-6.32-6.31v-3h112.92Z" style="fill:#989898"/><path d="M1490.56,729.37a6.31,6.31,0,0,1-6.31,6.31H1384.08a6.32,6.32,0,0,1-6.32-6.31v-2.93h112.8Z" style="fill:#999"/><path d="M1490.49,729.33a6.29,6.29,0,0,1-6.3,6.3H1384.13a6.3,6.3,0,0,1-6.3-6.3v-2.9h112.66Z" style="fill:#9a9a9a"/><path d="M1490.43,729.29a6.29,6.29,0,0,1-6.29,6.3h-100a6.3,6.3,0,0,1-6.3-6.3v-2.86h112.54Z" style="fill:#9b9b9b"/><path d="M1490.37,729.26a6.28,6.28,0,0,1-6.29,6.28h-99.84a6.29,6.29,0,0,1-6.29-6.28v-2.84h112.42Z" style="fill:#9c9c9c"/><path d="M1490.31,729.22a6.28,6.28,0,0,1-6.28,6.28H1384.3a6.29,6.29,0,0,1-6.29-6.28v-2.8h112.3Z" style="fill:#9d9d9d"/><path d="M1490.24,729.18a6.27,6.27,0,0,1-6.27,6.27h-99.61a6.28,6.28,0,0,1-6.28-6.27v-2.76h112.16Z" style="fill:#9e9e9e"/><path d="M1490.18,729.14a6.27,6.27,0,0,1-6.26,6.27h-99.51a6.27,6.27,0,0,1-6.27-6.27v-2.73h112Z" style="fill:#9f9f9f"/><path d="M1490.12,729.11a6.25,6.25,0,0,1-6.26,6.25h-99.39a6.26,6.26,0,0,1-6.27-6.25v-2.7h111.92Z" style="fill:#a0a0a0"/><path d="M1490.06,729.07a6.25,6.25,0,0,1-6.25,6.25h-99.29a6.25,6.25,0,0,1-6.26-6.25V726.4h111.8Z" style="fill:#a1a1a1"/><path d="M1490,729a6.24,6.24,0,0,1-6.24,6.25h-99.17a6.25,6.25,0,0,1-6.26-6.25V726.4H1490Z" style="fill:#a1a1a1"/><path d="M1489.93,729a6.23,6.23,0,0,1-6.23,6.24h-99.07a6.24,6.24,0,0,1-6.24-6.24v-2.6h111.54Z" style="fill:#a2a2a2"/><path d="M1489.87,729a6.22,6.22,0,0,1-6.23,6.23h-99a6.23,6.23,0,0,1-6.24-6.23v-2.57h111.42Z" style="fill:#a3a3a3"/><path d="M1489.81,728.92a6.22,6.22,0,0,1-6.23,6.22h-98.84a6.22,6.22,0,0,1-6.23-6.22v-2.53h111.3Z" style="fill:#a4a4a4"/><path d="M1489.74,728.88a6.21,6.21,0,0,1-6.21,6.22H1384.8a6.23,6.23,0,0,1-6.23-6.22v-2.5h111.17Z" style="fill:#a5a5a5"/><path d="M1489.68,728.84a6.2,6.2,0,0,1-6.21,6.21h-98.61a6.21,6.21,0,0,1-6.22-6.21v-2.46h111Z" style="fill:#a6a6a6"/><path d="M1489.62,728.81a6.2,6.2,0,0,1-6.2,6.2h-98.51a6.21,6.21,0,0,1-6.21-6.2v-2.44h110.92Z" style="fill:#a7a7a7"/><path d="M1489.56,728.77a6.19,6.19,0,0,1-6.2,6.19H1385a6.2,6.2,0,0,1-6.21-6.19v-2.4h110.8Z" style="fill:#a8a8a8"/><path d="M1489.49,728.73a6.18,6.18,0,0,1-6.18,6.19H1385a6.2,6.2,0,0,1-6.2-6.19v-2.37h110.67Z" style="fill:#a9a9a9"/><path d="M1489.43,728.69a6.17,6.17,0,0,1-6.18,6.18h-98.17a6.18,6.18,0,0,1-6.19-6.18v-2.33h110.54Z" style="fill:#aaa"/><path d="M1489.37,728.66a6.17,6.17,0,0,1-6.17,6.17h-98.07a6.18,6.18,0,0,1-6.18-6.17v-2.31h110.42Z" style="fill:#ababab"/><path d="M1489.31,728.62a6.17,6.17,0,0,1-6.17,6.17h-98a6.18,6.18,0,0,1-6.18-6.17v-2.27h110.3Z" style="fill:#acacac"/><path d="M1489.24,728.58a6.16,6.16,0,0,1-6.16,6.16h-97.84a6.17,6.17,0,0,1-6.17-6.16v-2.23h110.17Z" style="fill:#adadad"/><path d="M1489.18,728.54a6.15,6.15,0,0,1-6.15,6.16H1385.3a6.16,6.16,0,0,1-6.16-6.16v-2.2h110Z" style="fill:#aeaeae"/><path d="M1489.12,728.51a6.14,6.14,0,0,1-6.15,6.14h-97.62a6.15,6.15,0,0,1-6.15-6.14v-2.17h109.92Z" style="fill:#afafaf"/><path d="M1489.06,728.47a6.14,6.14,0,0,1-6.14,6.14h-97.51a6.14,6.14,0,0,1-6.15-6.14v-2.14h109.8Z" style="fill:#b0b0b0"/><path d="M1489,728.43a6.12,6.12,0,0,1-6.13,6.13h-97.39a6.13,6.13,0,0,1-6.15-6.13v-2.1H1489Z" style="fill:#b1b1b1"/><path d="M1488.93,728.4a6.12,6.12,0,0,1-6.12,6.12h-97.29a6.12,6.12,0,0,1-6.13-6.12v-2.08h109.54Z" style="fill:#b2b2b2"/><path d="M1488.87,728.36a6.11,6.11,0,0,1-6.12,6.11h-97.17a6.11,6.11,0,0,1-6.13-6.11v-2h109.42Z" style="fill:#b3b3b3"/><path d="M1488.81,728.32a6.11,6.11,0,0,1-6.11,6.11h-97.07a6.11,6.11,0,0,1-6.12-6.11v-2h109.3Z" style="fill:#b4b4b4"/><path d="M1488.75,728.28a6.11,6.11,0,0,1-6.11,6.1h-97a6.11,6.11,0,0,1-6.12-6.1v-2h109.18Z" style="fill:#b5b5b5"/><path d="M1488.68,728.25a6.09,6.09,0,0,1-6.09,6.09h-96.85a6.11,6.11,0,0,1-6.11-6.09v-1.94h109Z" style="fill:#b6b6b6"/><path d="M1488.62,728.21a6.09,6.09,0,0,1-6.09,6.09H1385.8a6.1,6.1,0,0,1-6.1-6.09V726.3h108.92Z" style="fill:#b7b7b7"/><path d="M1488.56,728.17a6.09,6.09,0,0,1-6.09,6.08h-96.62a6.09,6.09,0,0,1-6.09-6.08V726.3h108.8Z" style="fill:#b8b8b8"/><path d="M1488.5,728.13a6.08,6.08,0,0,1-6.08,6.08h-96.51a6.09,6.09,0,0,1-6.09-6.08v-1.84H1488.5Z" style="fill:#b9b9b9"/><path d="M1488.43,728.1a6.06,6.06,0,0,1-6.07,6.06H1386a6.08,6.08,0,0,1-6.09-6.06v-1.81h108.55Z" style="fill:#bababa"/><path d="M1488.37,728.06a6.06,6.06,0,0,1-6.06,6.06H1386a6.06,6.06,0,0,1-6.07-6.06v-1.77h108.42Z" style="fill:#bbb"/><path d="M1488.31,728a6,6,0,0,1-6.06,6.05h-96.17A6.06,6.06,0,0,1,1380,728v-1.74h108.3Z" style="fill:#bcbcbc"/><path d="M1488.25,728a6,6,0,0,1-6,6h-96.07a6.05,6.05,0,0,1-6.06-6v-1.7h108.18Z" style="fill:#bdbdbd"/><path d="M1488.18,728a6,6,0,0,1-6,6h-96a6,6,0,0,1-6.06-6v-1.68h108Z" style="fill:#bebebe"/><path d="M1488.12,727.91a6,6,0,0,1-6,6h-95.85a6,6,0,0,1-6-6v-1.64h107.92Z" style="fill:#bfbfbf"/><path d="M1488.06,727.87a6,6,0,0,1-6,6H1386.3a6,6,0,0,1-6-6v-1.61h107.8Z" style="fill:silver"/><path d="M1488,727.83a6,6,0,0,1-6,6h-95.62a6,6,0,0,1-6-6v-1.57H1488Z" style="fill:#c1c1c1"/><path d="M1487.93,727.8a6,6,0,0,1-6,6h-95.51a6,6,0,0,1-6-6v-1.54h107.55Z" style="fill:#c2c2c2"/><path d="M1487.87,727.76a6,6,0,0,1-6,6h-95.4a6,6,0,0,1-6-6v-1.51h107.42Z" style="fill:#c3c3c3"/><path d="M1487.81,727.72a6,6,0,0,1-6,6h-95.29a6,6,0,0,1-6-6v-1.47h107.3Z" style="fill:#c4c4c4"/><path d="M1487.75,727.68a6,6,0,0,1-6,6h-95.17a6,6,0,0,1-6-6v-1.44h107.18Z" style="fill:#c5c5c5"/><path d="M1487.68,727.65a6,6,0,0,1-6,6h-95.07a6,6,0,0,1-6-6v-1.41h107Z" style="fill:#c6c6c6"/><path d="M1487.62,727.61a6,6,0,0,1-6,6h-95a6,6,0,0,1-6-6v-1.38h106.93Z" style="fill:#c7c7c7"/><path d="M1487.56,727.57a6,6,0,0,1-6,6h-94.85a6,6,0,0,1-6-6v-1.34h106.8Z" style="fill:#c8c8c8"/><path d="M1487.5,727.53a6,6,0,0,1-6,6H1386.8a6,6,0,0,1-6-6v-1.3H1487.5Z" style="fill:#c9c9c9"/><path d="M1487.43,727.5a6,6,0,0,1-6,6h-94.63a6,6,0,0,1-6-6v-1.28h106.55Z" style="fill:#cacaca"/><path d="M1487.37,727.46a5.94,5.94,0,0,1-5.95,5.94h-94.51a6,6,0,0,1-6-5.94v-1.24h106.43Z" style="fill:#cbcbcb"/><path d="M1487.31,727.42a5.94,5.94,0,0,1-6,5.94H1387a5.94,5.94,0,0,1-6-5.94v-1.21h106.3Z" style="fill:#ccc"/><path d="M1487.25,727.38a5.94,5.94,0,0,1-5.94,5.94H1387a5.94,5.94,0,0,1-6-5.94v-1.17h106.18Z" style="fill:#cdcdcd"/><path d="M1487.18,726.2v1.15a5.93,5.93,0,0,1-5.93,5.92h-94.17a5.94,5.94,0,0,1-5.95-5.92V726.2Z" style="fill:#cecece"/><path d="M1069.31,728H1799a9.65,9.65,0,0,0-5-2,65.66,65.66,0,0,0-6.9-.41H1084a79.92,79.92,0,0,0-10,.4A7.88,7.88,0,0,0,1069.31,728Z" style="fill:#fff"/></g></g></svg>