<svg xmlns="http://www.w3.org/2000/svg" xmlns:xlink="http://www.w3.org/1999/xlink" viewBox="0 0 436.2 130"><defs><radialGradient id="radial-gradient" cx="218.1" cy="65" r="334.47" gradientUnits="userSpaceOnUse"><stop offset="0" stop-color="#fff"/><stop offset="0.01" stop-color="#f9f9f9"/><stop offset="0.13" stop-color="#bfbfbf"/><stop offset="0.25" stop-color="#8c8c8c"/><stop offset="0.37" stop-color="#616161"/><stop offset="0.49" stop-color="#3e3e3e"/><stop offset="0.62" stop-color="#232323"/><stop offset="0.74" stop-color="#0f0f0f"/><stop offset="0.87" stop-color="#040404"/><stop offset="1"/></radialGradient><mask id="mask" x="-107.4" y="-67.5" width="651" height="265" maskUnits="userSpaceOnUse"><rect x="-107.4" y="-67.5" width="651" height="265" fill="url(#radial-gradient)"/></mask></defs><g id="Layer_2" data-name="Layer 2"><g mask="url(#mask)"><g id="Layer_1-2" data-name="Layer 1"><path d="M88.9,84.2V83c3.1-.6,4.7-1.4,6.7-4.1A56.74,56.74,0,0,0,101.4,67l.5-1.4C95,53.5,81,45.7,67.6,41.3c20.5-11,26.5-16,26.5-26.2C94,.5,75.8.1,65.3.1H0V1.7C11.4,3.3,11.6,13.6,11.6,23.4V95.1c0,9.6-.2,18.9-11.6,20.5v1.6H44.7c29.9,0,59.9-3.9,61.3-33ZM31.1,23.1c0-3.2.2-9.1,1.8-11.2,2.7-3.4,12.8-3.6,17.4-3.6,14.1,0,22.4,2.7,22.4,10.3,0,15.1-29.9,24.7-41.7,28.1ZM45,109c-12.8,0-13.9-2.4-13.9-14V55.1L58,45c13.9,5.8,27.8,18.3,27.8,34.5C85.8,103.3,63.9,109,45,109Z" fill="#00d4dd"/><path d="M319.9,72.3c-5.4-13.6-12.5-27.1-22.4-38.1,8.2-4.4,18.4-10.6,18.4-21.1,0-8.7-4.6-13.1-18.4-13.1H248V1.1c8.2,1.1,8.3,8.6,8.3,15.6V68.2c0,7-.1,13.5-8.2,14.8-4-.9-5.7-2.7-8.8-10.7-5.4-13.6-12.6-27.1-22.4-38.1,8.2-4.4,18.4-10.6,18.4-21.1,0-8.7-4.6-13.1-18.5-13.1H167.3V1.1c8.2,1.1,8.3,8.6,8.3,15.6V68.2c0,5.4-.1,10.5-3.9,13.2-2.2-1.7-3-4.3-4.2-7.7l-21.9-63a17.49,17.49,0,0,1-1.1-5,4.45,4.45,0,0,1,3.7-4.6V0H119.8V1.1c2.2.4,4,1.8,4,4.1,0,2.6-1,5-1.9,7.4L101.3,67a56.74,56.74,0,0,1-5.8,11.9c-1.9,2.7-3.6,3.5-6.7,4.1v1.2H115V83c-3.7-.3-7-2.8-7-6.9a28.45,28.45,0,0,1,2-9.1l7.7-21.1c24.3.4,34.9,18.4,34.9,28.2,0,4.5-1.7,7.9-6.3,9v1.2H198V83.1c-8.2-1.2-8.3-7.6-8.3-15.6v-23l15.6-5.1c8.4,10.4,20.1,28.2,20.1,38.7,0,3.2-1.9,4.5-4.7,5v1.2h58V83.1c-8.2-1.2-8.3-7.6-8.3-15.6v-23L286,39.4c8.5,10.4,20.1,28.2,20.1,38.7,0,3.2-1.9,4.5-4.7,5v1.2h27.5V83.1C324.8,82.2,323.1,80.4,319.9,72.3Zm-200.6-32L131,9.6l14.2,40.3c-6.2-5.9-16.4-9.6-25.9-9.6Zm70.4-1.8V16.6c0-2.3.2-6.3,1.5-7.9,2.3-2.8,11-2.8,14.7-2.8,7.6,0,15.4.9,15.4,10.1.1,11.9-22.5,20-31.6,22.5Zm80.7,0V16.6c0-2.3.2-6.3,1.5-7.9,2.3-2.8,11-2.8,14.7-2.8,7.6,0,15.4.9,15.4,10.1,0,11.9-22.5,20-31.6,22.5Z" fill="#00d4dd"/><path d="M436.1.1H401.6V1.7c5.7.4,7.8,2.5,7.8,5.7,0,4.3-3.6,10.5-8,17.8L385,52.1,368.4,25.6c-3.2-5-7.1-11.9-7.1-16.9,0-3.7,2.3-6.6,8.7-6.9V.1H324V1.7c8.9.7,13.4,10,17.6,16.5l28.5,44.9v32c0,10-.2,19.2-11.6,20.5v1.6h42.7v-1.6c-11.4-.5-11.6-11-11.6-21.7V63.1L418.4,17C425,6.3,428.5,3,436.2,1.7V.1Z" fill="#00d4dd"/><path d="M157.2,94.1c-.2.4-.8.8-2.6.8H129.2l-.1,1.3c2.1,0,2.9,1.6,2.9,5.2v21.2c0,3.6-.7,5.2-2.9,5.2l.1,1.3h16.6v-1.3c-1.5,0-3.2-.5-3.2-6.7V109.9H144c5.5,0,8.4,1.4,9.3,6.1h1.1l-1.7-14-1.1.1c0,3.4-.8,4.4-5.9,4.4h-3v-3.2c0-4,1-4.9,5-4.9,4.9,0,9.1,2.6,11,8.2l1-.4Z" fill="#00d4dd"/><path d="M187.2,94.1c-.6.7-1.3.8-4.4.8H159.2v1.3c2.1,0,2.9,1.6,2.9,5.2v21.2c0,3.6-.7,5.2-2.9,5.2v1.3H185c1.4,0,2.5.1,3.1.8l4.4-13.5-1.1-.4c-2.8,5.7-7,9.7-13.7,9.7-4.1,0-5-1.4-5-4.9V109.5h1.4c4.2,0,5.7.7,6.8,1.7a12.24,12.24,0,0,1,2.6,3.8l1-.1-2.3-13.2-1,.2c0,3.7-1.9,4.2-6.8,4.2h-1.7v-1.7c0-5.2.3-6.1,4.8-6.1a11.38,11.38,0,0,1,11.2,8.1l1.1-.4Z" fill="#00d4dd"/><path d="M218.1,95H203v1.3a1.07,1.07,0,0,1,1.11,1,1,1,0,0,1,0,.17h0v.1a11.18,11.18,0,0,1-.9,3L195,122c-.9,2.4-2.1,5.3-4.9,5.9v1.3h11.4V128c-1.4-.2-2.4-.7-2.4-2.3a19.61,19.61,0,0,1,1-4.2l1.9-5.3c4.8.1,12.2,3.3,12.2,8.8a2.9,2.9,0,0,1-2.8,3h-.1v1.3h17.9V128c-2.8-.3-3.5-3.7-4.3-5.9-3.6-10.7-8.1-23.9-8.1-24.5,0-.9.4-1.2,1.2-1.3ZM207,101.9l4.3,13.3a14.74,14.74,0,0,0-7.9-2.5Z" fill="#00d4dd"/><path d="M267.2,127.9c-2.3,0-3.3-2.4-3.9-4.3a35.55,35.55,0,0,0-8.7-14.4c3.4-1.8,7.4-4.6,7.4-9,0-4.9-6-5.2-9.4-5.2H229.2v1.3c2.1,0,2.9,1.6,2.9,5.2v21.2c0,3.6-.7,5.2-2.9,5.2v1.3h16.3v-1.3c-2.1,0-2.9-1.6-2.9-5.2v-9.1l1.8-.6c2.2,2.6,7.4,10,7.4,13.2,0,1.4-.9,1.7-2.1,1.7v1.3h17.5Zm-24.5-25.8c0-3.1,1.1-3.7,4-3.7,2.6,0,4.4,1.3,4.4,4,0,4.4-4.8,6.5-8.3,7.4Z" fill="#00d4dd"/><path d="M297,98.6c-3.5-3.3-8.7-4.5-13.4-4.5-10.8,0-19.2,6.7-19.2,17.8a18.12,18.12,0,0,0,5.5,13.5c3.6,3.3,9,4.6,13.8,4.6s10.2-1.6,13.7-4.8a17.1,17.1,0,0,0,5.1-12.8C302.5,107.3,300.8,102.1,297,98.6Zm-7.4,5.9a26.45,26.45,0,0,1,1.5,9.7,18,18,0,0,1-1,6.9,6.31,6.31,0,0,1-5.8,4.5c-3.3,0-5.7-3-6.8-5.8a26.75,26.75,0,0,1-1.6-9.7,16.61,16.61,0,0,1,1.2-7c1-2.3,2.9-4.4,5.6-4.4,3.3-.1,5.7,2.9,6.9,5.8Z" fill="#00d4dd"/><path d="M336,95H325.6v1.3c2.1,0,3.2,1.6,3.2,5.2V108l-6-6.9c-1.6-1.9-2.1-2.9-2.1-3.5a1.45,1.45,0,0,1,1.5-1.4h.1V95H302.4v1.3c2.1,0,2.9,1.6,2.9,5.2v21.2c0,3.6-.7,5.2-2.9,5.2v1.3h10.1v-1.3c-2.1,0-2.8-1.6-2.8-5.2V101.1l15.5,17.8c1.6,1.8,3.1,3.5,3.1,6a2.79,2.79,0,0,1-2.5,3h-.1v1.2H336v-1.3c-2.1,0-2.9-1.6-2.9-5.2V101.4c0-3.6.7-5.2,2.9-5.2Z" fill="#00d4dd"/><rect id="underline1" x="2" y="125" width="115" height="5" fill="#00d4dd"/><rect id="underline2" x="348" y="125" width="88.1" height="5" fill="#00d4dd"/></g></g></g></svg>