<?xml version="1.0" encoding="utf-8"?>
<!-- Generator: Adobe Illustrator 25.1.0, SVG Export Plug-In . SVG Version: 6.00 Build 0)  -->
<svg version="1.1" id="Layer_1" xmlns="http://www.w3.org/2000/svg" xmlns:xlink="http://www.w3.org/1999/xlink" x="0px" y="0px"
	 viewBox="0 0 38 38" style="enable-background:new 0 0 38 38;" xml:space="preserve">
<style type="text/css">
	.st0{fill:#00d4ddb3;}
</style>
<g id="Layer_2_1_">
	<g id="Layer_1-2">
		<path class="st0" d="M35.3,0H2.7C1.2,0,0,1.2,0,2.7v32.5C0,36.8,1.2,38,2.7,38h32.6c1.5,0,2.7-1.2,2.7-2.7V2.7
			C38,1.2,36.8,0,35.3,0z M11.5,32.6H5.8V14.4h5.6L11.5,32.6L11.5,32.6z M8.7,12c-1.8,0-3.3-1.5-3.3-3.3s1.5-3.3,3.3-3.3
			s3.3,1.5,3.3,3.3c0,0,0,0,0,0C11.9,10.5,10.5,12,8.7,12z M32.6,32.6H27v-8.8c0-2.1,0-4.8-2.9-4.8s-3.4,2.3-3.4,4.7v9H15V14.4h5.4
			v2.5h0.1c1.1-1.9,3.2-3,5.4-2.9c5.7,0,6.8,3.8,6.8,8.6V32.6z"/>
	</g>
</g>
</svg>
