<svg xmlns="http://www.w3.org/2000/svg" viewBox="0 0 38 38"><g id="Layer_2" data-name="Layer 2"><g id="Layer_1-2" data-name="Layer 1"><g style="isolation:isolate"><path d="M4.53,38A3.61,3.61,0,0,1,.92,34.39V4.53A3.61,3.61,0,0,1,4.53.92H34.39A3.61,3.61,0,0,1,38,4.53V34.39A3.61,3.61,0,0,1,34.39,38ZM12.68,5.43a1.61,1.61,0,0,0-.39,0L6.77,6.75A1.71,1.71,0,0,0,5.43,8.43,25.09,25.09,0,0,0,30.49,33.49a1.73,1.73,0,0,0,1.69-1.34l1.27-5.51a1.74,1.74,0,0,0-1-2l-5.93-2.54a1.81,1.81,0,0,0-.69-.14,1.73,1.73,0,0,0-1.34.63l-2.4,2.94a19.38,19.38,0,0,1-8.7-8.7l2.94-2.4a1.75,1.75,0,0,0,.49-2L14.27,6.48A1.73,1.73,0,0,0,12.68,5.43Z" transform="translate(-0.46 -0.46)"/><path d="M34.39,1.38a3.15,3.15,0,0,1,3.15,3.15V34.39a3.15,3.15,0,0,1-3.15,3.15H4.53a3.15,3.15,0,0,1-3.15-3.15V4.53A3.15,3.15,0,0,1,4.53,1.38H34.39M30.49,34h0a2.18,2.18,0,0,0,2.13-1.7l1.28-5.51a2.19,2.19,0,0,0-1.28-2.51l-5.93-2.54a2.19,2.19,0,0,0-.87-.18,2.16,2.16,0,0,0-1.69.8L22,25a18.83,18.83,0,0,1-8-8l2.65-2.16a2.22,2.22,0,0,0,.63-2.57L14.69,6.3a2.19,2.19,0,0,0-2-1.33,2.73,2.73,0,0,0-.5,0L6.67,6.3A2.18,2.18,0,0,0,5,8.43,25.55,25.55,0,0,0,30.49,34M34.39.46H4.53A4.07,4.07,0,0,0,.46,4.53V34.39a4.07,4.07,0,0,0,4.07,4.07H34.39a4.07,4.07,0,0,0,4.07-4.07V4.53A4.07,4.07,0,0,0,34.39.46ZM30.49,33A24.6,24.6,0,0,1,5.89,8.43a1.28,1.28,0,0,1,1-1.24l5.51-1.27a1.36,1.36,0,0,1,.29,0,1.26,1.26,0,0,1,1.16.77l2.55,5.94A1.28,1.28,0,0,1,16,14.08l-3.22,2.63a19.69,19.69,0,0,0,9.4,9.4l2.63-3.21a1.27,1.27,0,0,1,1.48-.37l5.94,2.55A1.26,1.26,0,0,1,33,26.53l-1.27,5.52a1.28,1.28,0,0,1-1.24,1Z" transform="translate(-0.46 -0.46)" fill="#00d4ddb3"/></g><path d="M33,26.53l-1.27,5.52a1.28,1.28,0,0,1-1.24,1A24.6,24.6,0,0,1,5.89,8.43a1.28,1.28,0,0,1,1-1.24l5.51-1.27a1.26,1.26,0,0,1,1.45.74l2.55,5.94A1.28,1.28,0,0,1,16,14.08l-3.22,2.63a19.69,19.69,0,0,0,9.4,9.4l2.63-3.21a1.27,1.27,0,0,1,1.48-.37l5.94,2.55A1.26,1.26,0,0,1,33,26.53Z" transform="translate(-0.46 -0.46)" fill="#00d4ddb3"/></g></g></svg>