<svg xmlns="http://www.w3.org/2000/svg" viewBox="0 0 38 38"><g id="Layer_2" data-name="Layer 2"><g id="Layer_1-2" data-name="Layer 1"><g style="isolation:isolate"><rect x="0.46" y="0.46" width="37.08" height="37.08" rx="3.61"/><path d="M34.39,1.38a3.15,3.15,0,0,1,3.15,3.15V34.39a3.15,3.15,0,0,1-3.15,3.15H4.53a3.15,3.15,0,0,1-3.15-3.15V4.53A3.15,3.15,0,0,1,4.53,1.38H34.39m0-.92H4.53A4.07,4.07,0,0,0,.46,4.53V34.39a4.07,4.07,0,0,0,4.07,4.07H34.39a4.07,4.07,0,0,0,4.07-4.07V4.53A4.07,4.07,0,0,0,34.39.46Z" transform="translate(-0.46 -0.46)" fill="#6dc8bf"/></g><path d="M31,4.84l-26,15a1.86,1.86,0,0,0,.22,3.33l8.14,3.37v5.92a1.87,1.87,0,0,0,3.3,1.18l3.52-4.29,7.34,3A1.86,1.86,0,0,0,30,31L33.75,6.74A1.86,1.86,0,0,0,31,4.84ZM15.19,32.47V27.31l3.17,1.31Zm13-1.79-12-4.95L27.81,12a.34.34,0,0,0-.49-.48L12.49,24.18,5.9,21.46l26-15Z" transform="translate(-0.46 -0.46)" fill="#6dc8bf"/></g></g></svg>