<?xml version="1.0" encoding="utf-8"?>
<!-- Generator: Adobe Illustrator 24.3.0, SVG Export Plug-In . SVG Version: 6.00 Build 0)  -->
<!DOCTYPE svg PUBLIC "-//W3C//DTD SVG 1.1//EN" "http://www.w3.org/Graphics/SVG/1.1/DTD/svg11.dtd" [
	<!ENTITY ns_extend "http://ns.adobe.com/Extensibility/1.0/">
	<!ENTITY ns_ai "http://ns.adobe.com/AdobeIllustrator/10.0/">
	<!ENTITY ns_graphs "http://ns.adobe.com/Graphs/1.0/">
	<!ENTITY ns_vars "http://ns.adobe.com/Variables/1.0/">
	<!ENTITY ns_imrep "http://ns.adobe.com/ImageReplacement/1.0/">
	<!ENTITY ns_sfw "http://ns.adobe.com/SaveForWeb/1.0/">
	<!ENTITY ns_custom "http://ns.adobe.com/GenericCustomNamespace/1.0/">
	<!ENTITY ns_adobe_xpath "http://ns.adobe.com/XPath/1.0/">
]>
<svg version="1.1" id="Calque_1" xmlns:x="&ns_extend;" xmlns:i="&ns_ai;" xmlns:graph="&ns_graphs;"
	 xmlns="http://www.w3.org/2000/svg" xmlns:xlink="http://www.w3.org/1999/xlink" x="0px" y="0px" viewBox="0 0 447 388.5"
	 style="enable-background:new 0 0 447 388.5;" xml:space="preserve">
<style type="text/css">
	.st0{fill:#F75D3C;}
	.st1{fill:#F93748;}
</style>
<metadata>
	<sfw  xmlns="&ns_sfw;">
		<slices></slices>
		<sliceSourceBounds  bottomLeftOrigin="true" height="388.5" width="447" x="288" y="318"></sliceSourceBounds>
	</sfw>
</metadata>
<desc>Created with Sketch.</desc>
<g id="Page-1">
	<g id="Logo">
		<g id="Group" transform="translate(288.000000, 318.000000)">
			<circle id="Oval-1" class="st0" cx="110" cy="-268" r="49"/>
			<circle id="Oval-1-Copy-2" class="st0" cx="110" cy="21" r="49"/>
			<circle id="Oval-1-Copy" class="st1" cx="-238" cy="-123" r="49"/>
			<path class="st0" d="M-26.6-219h-211.9c-27.2,0-49.5-22.3-49.5-49.5l0,0c0-27.2,22.3-49.5,49.5-49.5h211.9
				c27.2,0,49.5,22.3,49.5,49.5l0,0C22.9-241.3,0.6-219-26.6-219z"/>
			<path class="st0" d="M109.5-74h-212c-27.2,0-49.5-22.3-49.5-49.5l0,0c0-27.2,22.3-49.5,49.5-49.5h211.9
				c27.2,0,49.5,22.3,49.5,49.5l0,0C159-96.3,136.7-74,109.5-74z"/>
			<path class="st0" d="M-26.6,70.5h-211.9c-27.2,0-49.5-22.3-49.5-49.5l0,0c0-27.2,22.3-49.5,49.5-49.5h211.9
				C0.6-28.5,22.9-6.2,22.9,21l0,0C22.9,48.2,0.6,70.5-26.6,70.5z"/>
		</g>
	</g>
</g>
</svg>
