<?xml version="1.0" encoding="utf-8"?>
<!-- Generator: Adobe Illustrator 25.1.0, SVG Export Plug-In . SVG Version: 6.00 Build 0)  -->
<svg version="1.1" id="Layer_1" xmlns="http://www.w3.org/2000/svg" xmlns:xlink="http://www.w3.org/1999/xlink" x="0px" y="0px"
	 viewBox="0 0 796.5 445.8" style="enable-background:new 0 0 796.5 445.8;" xml:space="preserve">
<style type="text/css">
	.st0{fill:#EB5E03;}
	.st1{fill:#FFCF00;}
	.st2{fill-rule:evenodd;clip-rule:evenodd;fill:#FFFFFF;}
	.st3{fill-rule:evenodd;clip-rule:evenodd;}
</style>
<g id="Page-1">
	<g id="ux-ui-logo_1_">
		<g id="Logo" transform="translate(242.000000, 116.000000)">
			<circle id="Oval" class="st0" cx="-19.1" cy="106.9" r="222.9"/>
			<circle id="Oval_1_" class="st1" cx="331.6" cy="106.9" r="222.9"/>
			<path id="UX" class="st2" d="M-22.1,135.8c0,7.9-0.8,15.3-2.4,22.2s-4.3,12.9-7.9,18.1s-8.5,9.3-14.4,12.3s-13.2,4.5-21.9,4.5
				s-15.9-1.5-21.7-4.5s-10.5-7.1-14.2-12.3s-6.3-11.3-7.8-18.1s-2.3-14.3-2.3-22.2V33.5h19.8v100.3c0,5.3,0.4,10.4,1.2,15.3
				s2.2,9.3,4.2,13.1c2,3.8,4.7,6.9,8.1,9.1c3.4,2.3,7.8,3.4,13.1,3.4s9.6-1.1,13-3.4s6-5.3,8-9.1s3.4-8.2,4.2-13.1s1.2-10,1.2-15.3
				V33.5h19.8V135.8z M40.8,91.6l25.5-58.1h20.5l-35.4,73.7L91,189.3H69.4l-29.3-65.6l-29.3,65.6H-10L29.4,107L-6.1,33.5h20.9
				L40.8,91.6z"/>
			<path id="UI" class="st3" d="M352.5,135.8c0,7.9-0.8,15.3-2.4,22.2c-1.6,6.9-4.3,12.9-7.9,18.1s-8.5,9.3-14.4,12.3
				c-5.9,3-13.2,4.5-21.9,4.5s-15.9-1.5-21.7-4.5c-5.8-3-10.5-7.1-14.2-12.3s-6.3-11.3-7.8-18.1s-2.3-14.3-2.3-22.2V33.5h19.8v100.3
				c0,5.3,0.4,10.4,1.2,15.3c0.8,4.9,2.2,9.3,4.2,13.1c2,3.8,4.7,6.9,8.1,9.1c3.4,2.3,7.8,3.4,13.1,3.4s9.6-1.1,13-3.4s6-5.3,8-9.1
				c2-3.8,3.4-8.2,4.2-13.1c0.8-4.9,1.2-10,1.2-15.3V33.5h19.8V135.8z M380.6,189.3V33.5h19.8v155.8H380.6z"/>
		</g>
	</g>
</g>
</svg>
