<?xml version="1.0" encoding="utf-8"?>
<!-- Generator: Adobe Illustrator 25.0.1, SVG Export Plug-In . SVG Version: 6.00 Build 0)  -->
<svg version="1.1" id="Layer_1" xmlns="http://www.w3.org/2000/svg" xmlns:xlink="http://www.w3.org/1999/xlink" x="0px" y="0px"
	 viewBox="0 0 87.22 87.22" style="enable-background:new 0 0 87.22 87.22;" xml:space="preserve">
<style type="text/css">
	.st0{fill:#FFFFFF;}
</style>
<path class="st0" d="M6.2,43.61c0,14.81,8.6,27.61,21.08,33.67L9.44,28.38C7.36,33.04,6.2,38.18,6.2,43.61z M68.86,41.72
	c0-4.63-1.66-7.83-3.08-10.32c-1.9-3.08-3.67-5.69-3.67-8.77c0-3.44,2.61-6.64,6.28-6.64c0.17,0,0.32,0.02,0.48,0.03
	C62.22,9.92,53.35,6.2,43.61,6.2c-13.07,0-24.57,6.71-31.26,16.86c0.88,0.03,1.71,0.05,2.41,0.05c3.91,0,9.97-0.48,9.97-0.48
	c2.02-0.12,2.25,2.84,0.24,3.08c0,0-2.03,0.24-4.28,0.36l13.62,40.52l8.19-24.55l-5.83-15.97c-2.02-0.12-3.92-0.36-3.92-0.36
	c-2.02-0.12-1.78-3.2,0.24-3.08c0,0,6.18,0.48,9.85,0.48c3.91,0,9.97-0.48,9.97-0.48c2.02-0.12,2.25,2.84,0.24,3.08
	c0,0-2.03,0.24-4.28,0.36l13.52,40.21l3.73-12.47C67.91,48.95,68.86,44.92,68.86,41.72z M44.27,46.88L33.04,79.5
	c3.35,0.99,6.9,1.52,10.57,1.52c4.36,0,8.54-0.75,12.42-2.12c-0.1-0.16-0.19-0.33-0.27-0.52L44.27,46.88z M76.44,25.66
	c0.16,1.19,0.25,2.47,0.25,3.85c0,3.79-0.71,8.06-2.85,13.4L62.42,75.94c11.12-6.48,18.6-18.53,18.6-32.34
	C81.02,37.1,79.36,30.99,76.44,25.66z"/>
<g>
	<path class="st0" d="M0,43.61c0,24.05,19.56,43.61,43.61,43.61c24.05,0,43.61-19.56,43.61-43.61C87.22,19.56,67.66,0,43.61,0
		C19.56,0,0,19.56,0,43.61z M2,43.61C2,20.67,20.67,2,43.61,2c22.94,0,41.61,18.67,41.61,41.61c0,22.94-18.67,41.61-41.61,41.61
		C20.67,85.22,2,66.55,2,43.61z"/>
</g>
</svg>
